<?xml version="1.0" encoding="UTF-8"?> <!-- Generator: Adobe Illustrator 22.0.0, SVG Export Plug-In . SVG Version: 6.00 Build 0) --> <svg xmlns="http://www.w3.org/2000/svg" viewBox="0 0 535 102.4" enable-background="new 0 0 535 102.4" xmlns:xlink="http://www.w3.org/1999/xlink" class="h-logo_img"><defs><path id="a" d="M-1.3 79.7c10 24.8 42.2 29.2 70.6 13.8 28.4-15.4 43.4-45 34.1-66.4-1.2-2.8-3.2-6.8-5.8-9.3-13.2-13.3-39.2-14.2-63-1.3C6.2 31.8-10 58-1.3 79.7"></path></defs><use xlink:href="#a" overflow="visible" fill-rule="evenodd" clip-rule="evenodd" fill="#962428"></use><clipPath id="b"><use xlink:href="#a" overflow="visible"></use></clipPath><path clip-path="url(#b)" fill-rule="evenodd" clip-rule="evenodd" fill="#DFE0DF" d="M99.2 53l2.9 6.2c2.4-4.8 4.3-13.6 4.1-18.3l-2.9-6c-.1 1-1 7.4-1.3 8.4-.7 2.9-1.8 7.1-2.8 9.7zM77 79.5l3.2 7.1c4.7-3.3 10.2-8.5 13.5-13.3l-3-6.7C88.4 70 80.4 77.1 77 79.5zM47.2 101.4l-2-6.4c7.5-1.9 11.8-3.7 18.7-6.8l1.8 7.2c-4.4 2.4-14.4 5.5-18.5 6zM13.3 96.9l-4-5.9c5.6 2.4 12.1 4.8 18.8 5.4l1.4 5.7c-9.1-1.2-11.6-2.9-16.2-5.2z"></path><defs><path id="c" d="M-1.8 78.5c9 20.1 39.3 24 67.6 8.7 28.3-15.3 43.9-44.1 34.9-64.2-9-20.2-39.3-24-67.6-8.7C4.8 29.6-10.8 58.4-1.8 78.5"></path></defs><clipPath id="d"><use xlink:href="#c" overflow="visible"></use></clipPath><path clip-path="url(#d)" fill-rule="evenodd" clip-rule="evenodd" fill="#7F8082" d="M16.8 41l-9-5.9C4.6 39 2.1 43.1 0 47.7l11.1 2.4c1.5-3.3 3.6-6 5.7-9.1M36.6 24.4l-4.8-9.5c-4.9 2.3-8 4.4-11.8 8.1l7.2 7.8c2.7-2.5 6.1-4.4 9.4-6.4M63 16.8l2-11.9c-6.3.1-11.8 1.3-18.1 3.4l2.5 10.8c4.5-1.5 9.2-2.2 13.6-2.3M86.6 26.2l11.6-7.9c-3.3-4.6-8.6-8.6-14.1-10.5l-6.8 10.5c3.5 2.3 6.9 4.6 9.3 7.9M85.9 49.2l14.3 4.1c2.7-4.7 3.6-13.2 4.4-18.7L89 37.3c-.1 1 .2 1.4-.1 2.4-.6 2.9-1.6 7-3 9.5"></path><path clip-path="url(#d)" fill-rule="evenodd" clip-rule="evenodd" fill="#7F8082" d="M69.6 68.7l8.5 12.5c4.5-3.8 10.3-9.3 13.6-14l-12.5-7.6c-2.4 3.3-6.5 6.2-9.6 9.1zM45.5 80.6l-.4 15c7.5-1.9 12.4-2.8 19.2-6.4l-6.2-13.5c-3.5 1.9-6.1 3-10.2 4.3-1.3.3-1.1.2-2.4.6zM19.2 79.9L9.2 91c5.2 2.8 11.9 5.1 18.9 5.5l4.1-14c-4.8-.4-9-.9-13-2.6zM8.2 61.8l-12.4-.2c-.9 5.9 0 12.1 2.5 17.4L11 73.1c-1.6-3.5-2.9-7.3-2.8-11.3z"></path><defs><path id="e" d="M-1.8 78.5c9 20.1 39.3 24 67.6 8.7 28.3-15.3 43.9-44.1 34.9-64.2-9-20.2-39.3-24-67.6-8.7C4.8 29.6-10.8 58.4-1.8 78.5"></path></defs><use xlink:href="#e" overflow="visible" fill-rule="evenodd" clip-rule="evenodd" fill="#CA262B"></use><clipPath id="f"><use xlink:href="#e" overflow="visible"></use></clipPath><path clip-path="url(#f)" fill-rule="evenodd" clip-rule="evenodd" fill="#fff" d="M16.8 41l-9-5.9C4.6 39 2.1 43.1 0 47.7l11.1 2.4c1.5-3.3 3.6-6 5.7-9.1M36.6 24.4l-4.8-9.5c-4.9 2.3-8 4.4-11.8 8.1l7.2 7.8c2.7-2.5 6.1-4.4 9.4-6.4M63 16.8l2-11.9c-6.3.1-11.8 1.3-18.1 3.4l2.5 10.8c4.5-1.5 9.2-2.2 13.6-2.3M86.6 26.2l11.6-7.9c-3.3-4.6-8.6-8.6-14.1-10.5l-6.8 10.5c3.5 2.3 6.9 4.6 9.3 7.9M85.9 49.2l14.3 4.1c2.7-4.7 3.6-13.2 4.4-18.7L89 37.3c-.1 1 .2 1.4-.1 2.4-.6 2.9-1.6 7-3 9.5"></path><path clip-path="url(#f)" fill-rule="evenodd" clip-rule="evenodd" fill="#fff" d="M69.6 68.7l8.5 12.5c4.5-3.8 10.3-9.3 13.6-14l-12.5-7.6c-2.4 3.3-6.5 6.2-9.6 9.1zM45.5 80.6l-.4 15c7.5-1.9 12.4-2.8 19.2-6.4l-6.2-13.5c-3.5 1.9-6.1 3-10.2 4.3-1.3.3-1.1.2-2.4.6zM19.2 79.9L9.2 91c5.2 2.8 11.9 5.1 18.9 5.5l4.1-14c-4.8-.4-9-.9-13-2.6zM8.2 61.8l-12.4-.2c-.9 5.9 0 12.1 2.5 17.4L11 73.1c-1.6-3.5-2.9-7.3-2.8-11.3z"></path><path fill-rule="evenodd" clip-rule="evenodd" fill="#fff" d="M9.6 71c6.3 13.9 28.9 15.7 50.4 3.9 21.5-11.7 33.8-32.5 27.5-46.5-6.3-13.9-28.9-15.7-50.4-4C15.6 36.2 3.3 57 9.6 71"></path><path fill="#962428" d="M9.2 71.1c-1.1-2.5-1.7-5.3-1.7-8.2 0-13.3 11.6-29.2 29.4-38.9 9.6-5.2 19.5-7.8 28-7.8 10.7 0 19.4 4 23 12 1.1 2.5 1.7 5.3 1.7 8.1 0 13.3-11.6 29.2-29.4 38.9-9.6 5.3-19.5 7.8-28 7.8-10.6.1-19.4-3.9-23-11.9m23 11.1c8.4 0 18.1-2.5 27.6-7.7 17.6-9.6 29-25.3 28.9-38.1 0-2.8-.5-5.4-1.6-7.8-3.4-7.5-11.7-11.5-22.2-11.5-8.4 0-18.1 2.5-27.6 7.7-17.6 9.6-29 25.3-29 38.1 0 2.8.5 5.4 1.6 7.8l-.3.3.4-.2c3.4 7.5 11.8 11.4 22.2 11.4"></path><path fill="#CA262B" d="M22 25.2c-4.3 4.3-7.7 8.7-10.3 12.5l2.4 1.6c3.2-3 7.3-6.5 11.9-9.7l-4-4.4m75.3-6.3l-8.2 5.6c2.3 3 3.9 6.9 4.6 12l2.9-.5c3.1-6.8 3-12.5.7-17.1M47 8.8c-5.4 2-10.2 4.6-14.5 7.5l3.6 7c4-2.1 8.3-3.8 12.8-4.9.1 0 .2 0 .3-.1L47 8.8m19.6-3.5H65L63.1 16c1.5-.1 3-.2 4.5-.2 3.6 0 7.1.4 10.3 1.3l5.8-8.9c-5-1.9-11-2.9-17.1-2.9"></path><path fill="#fff" d="M11.6 37.6c-4.2 6.1-6.2 10.7-6.2 10.7s3.2-4 8.7-9.1l-2.5-1.6M32.5 16.4c-4 2.7-7.5 5.8-10.6 8.8l4 4.3c3.1-2.2 6.5-4.3 10.1-6.1l-3.5-7M65 5.3c-4.8.1-9.6.9-14.1 2.2-1.3.4-2.6.8-3.8 1.3l2.2 9.6c4.4-1.1 9.2-2 13.9-2.4L65 5.3M83.8 8.2L78 17.1c4.4 1.3 8.3 3.6 11.1 7.4l8.2-5.6c-2.4-4.9-7.4-8.5-13.5-10.7M96.6 36l-2.9.5c.2 1.3.3 2.7.4 4.1 1-1.5 1.8-3.1 2.5-4.6"></path><path fill-rule="evenodd" clip-rule="evenodd" fill="#B8242A" d="M78.4 24.4l-22.9 9.4-15.2-8.1-4.6 18.5L14.5 58l20.1 2 2.1 16.6 17-17.3 22.6-3.5-9.7-12.7 11.8-18.7"></path><path fill="#fff" d="M39.8 27.6c-8 4.5-15.3 10.2-18.9 16.1-9.9 16.1-10.2 21.2-6 21.2 3 0 8.2-2.5 13.7-5.5L14.5 58l21.2-13.8 4.1-16.6m26.7-8.7c-6.5 0-16 3-24.8 7.6l13.7 7.3 23-9.4-11.8 18.7.2.3c1.6-.4 2.9-.6 4.1-.6 4.5 0 5.8 3.2 4.4 11.7l.9 1.2-1.1.3c-.2 1.1-.4 2.3-.7 3.6 0 .2 0 .3.1.3.6 0 4.4-5.1 7.3-11.9 7.1-16.6-2.6-26.5-11.6-28.8-1.1-.2-2.3-.3-3.7-.3"></path><path fill="#CA262B" d="M75.4 54.6c-.1.5-.2.9-.2 1.4l1.2-.2-1-1.2m3-30.2l-23 9.4-13.7-7.3c-.7.3-1.3.7-2 1.1l-4.1 16.6L14.5 58l14.2 1.4c5.4-2.9 11.1-6.1 15.4-7.7 10.2-3.9 17.7-7 22.9-8.2l-.2-.3 11.6-18.8"></path><path fill="#fff" d="M152.7 57.7l-3.3 15.2c-.6 3.2-1 5.7-1 7.6 0 1.1.1 2.2.4 3.4h-22.6c.7-1.3 1.4-2.8 2-4.5.6-1.6 1.2-3.8 1.7-4.9l8.4-42.3c.3-3.1.5-4.4.6-5.5.1-1.1.2-2.1.2-3.1 0-1.5-.2-2.9-.6-4.1h41.9c3.8 0 6.6.7 8.4 2 1.8 1.3 2.6 3.7 2.6 6.9 0 1.3-.2 3.1-.6 5.2l-2.3 13.5c-.9 4.4-2.1 7.2-3.6 8.5-1.6 1.3-3.7 1.9-6.2 1.9l3.3 16.4c.3 1.9.6 3.7 1 5.5.3 1.8.8 3.3 1.3 4.3h-20.1l-3.7-26.3h-7.8zm2.2-10.7h11c1.3 0 2.2-.2 2.7-.7.5-.4.9-1.4 1.2-3l1.5-9.5c.2-.7.2-1.3.2-1.8 0-1.2-.9-1.8-2.7-1.8h-11L154.9 47zM214.6 65.4l-.9 4.4c-.2.7-.2 1.3-.2 1.8 0 2 1.2 3 3.6 3h18.1c2.1 0 3.6-.1 4.7-.4 1.1-.2 2.5-.8 4.2-1.7l-3.7 11.3H203c-3.1 0-5.4-.6-6.7-1.9-1.4-1.3-2-3.3-2-6 0-1.8.2-3.9.7-6.3l3.7-18.7c1-5.2 2.5-8.8 4.5-11 2-2.2 5-3.3 9.2-3.3H241c3.1 0 5.4.6 6.7 1.9 1.4 1.3 2 3.3 2 6 0 1.8-.2 3.9-.7 6.3l-3 14.6h-31.4zm14.9-9.2l1.3-6.4c.2-.7.2-1.3.2-1.8 0-1.3-.7-2-2.2-2h-7.7c-1.9 0-3 1.3-3.4 3.8l-1.3 6.4h13.1zM285.4 83.9l-.1-5c-2 3.4-3.8 5-5.4 5h-15.8c-3.2 0-5.6-.8-7.2-2.5-1.5-1.7-2.3-4.1-2.3-7.1 0-.7 0-1.4.1-2.2.1-.8.2-1.7.4-2.9l3.6-17.9c.9-4.6 2.5-8.2 4.9-10.8 2.4-2.6 5.6-3.9 9.8-3.9h14.7c1.5 0 2.5.5 3 1.6s.8 2.3 1 3.8l2.7-13.4c.4-2.2.6-4 .6-5.5 0-.6-.1-1.3-.2-1.9-.1-.7-.2-1.2-.3-1.7h20.4l-11 55.5c-.4 2.1-.6 3.9-.6 5.3 0 .6.1 1.2.2 1.8.1.6.2 1.2.3 1.7h-18.8zm5.2-34.4c.2-.6.2-1.1.2-1.6 0-1.3-.7-2-2.1-2h-7.5c-1.7 0-2.8 1.2-3.3 3.6L273.7 71c-.2.6-.2 1.1-.2 1.6 0 1.3.7 2 2.2 2h7.5c1.7 0 2.8-1.2 3.3-3.6l4.1-21.5zM372.2 32.3c-1.2-.7-2.3-1.3-3.3-1.6-1.1-.3-2.4-.5-4.1-.5h-18.1c-1.5 0-2.6.2-3.1.5s-.9 1.1-1.2 2.3l-.7 3.6c-.1.7-.2 1.1-.2 1.2 0 .7.2 1.1.7 1.3.5.2 1.3.3 2.7.3h13.8c7.1 0 10.7 2.9 10.7 8.8 0 1.2-.2 2.6-.5 4.2l-3.1 15.7c-1.1 5.3-2.7 9.3-5.1 11.9-2.3 2.6-5.7 3.9-10.2 3.9h-35l.9-13.1c1.1.7 2.1 1.3 3.1 1.8 1 .4 2.4.7 4 .7h18.8c1.5 0 2.5-.2 3.1-.5.6-.3.9-1.1 1.2-2.3l.9-4.4c.1-.7.2-1.1.2-1.2 0-1.1-1.1-1.6-3.3-1.6h-15.8c-3.1 0-5.3-.6-6.6-1.7-1.4-1.1-2-3.1-2-5.9 0-1.7.2-3.8.7-6.3l2.9-14.4c2-10.2 6.6-15.3 13.8-15.3H373l-.8 12.6zM389 27l18.9-.6-2.1 10.3h15L419 46h-15l-4.9 24.9c-.2.8-.2 1.4-.2 1.9 0 .7.2 1.2.7 1.5.4.3 1.3.4 2.6.4h6.6c1.6 0 2.9-.2 4-.6 1.1-.4 2.1-.8 3.1-1.3l-3.3 11.1H389c-2.7 0-4.9-.7-6.4-2-1.6-1.3-2.4-3.7-2.4-7 0-1.2 0-2.1.1-2.7.1-.6.2-1.6.6-3l4.5-23.2h-8l1.8-9.3h8L389 27zM467.8 36.7c3.4 0 6 .8 7.6 2.3 1.6 1.5 2.4 4 2.4 7.6 0 2.1-.3 4.8-.9 7.9l-4.1 20.6c-.4 1.9-.6 3.6-.6 5 0 1.3.2 2.6.6 3.8H454l.1-5.2c-1 2.1-2.1 3.6-3.2 4.2-1.1.7-3 1-5.7 1H432c-3.1 0-5.4-.6-6.7-1.9-1.4-1.3-2-3.3-2-6.1 0-1.8.2-3.9.7-6.4l.7-3.4c1-5.2 2.5-8.9 4.5-11.1 2-2.2 5-3.3 9.2-3.3h17.1c1.3 0 2.2-.2 2.7-.6.5-.4.8-1 1-1.9.2-.9.3-1.4.3-1.6 0-1.3-.9-1.9-2.8-1.9H438c-2.8 0-5.4.6-7.9 1.7l3.6-11h34.1zm-19.4 24.4c-1.5 0-2.6.3-3.2.8-.7.5-1.2 1.6-1.6 3.3l-1 5.4c-.2.7-.2 1.3-.2 1.8 0 .9.2 1.5.7 1.8.5.3 1.4.5 2.7.5h4.4c1.8 0 3-.4 3.6-1.1.6-.7 1.2-2.6 1.8-5.7l1.3-6.7h-8.5zM509.1 36.7l-.9 7.9c1.6-3.1 3.2-5.2 4.7-6.3 1.5-1.1 3.7-1.7 6.6-1.7h9.2l-3 15.5c-1.2-1-2.2-1.6-3-1.9-.8-.3-2.6-.4-5.2-.4-3.6 0-6.1.5-7.4 1.6-1.4 1.1-2.3 3.2-3 6.4l-3 15.2c-.5 2.8-.8 4.9-.8 6.4 0 .7.1 1.4.2 1.9s.3 1.4.6 2.6H481c1.1-1.7 1.9-3.2 2.5-4.4.6-1.3 1.1-3.4 1.7-6.4l5-25.6c.5-2.8.8-4.9.8-6.4 0-.7-.1-1.4-.2-1.9s-.3-1.4-.6-2.6h18.9z"></path></svg>